<svg xmlns="http://www.w3.org/2000/svg" xmlns:xlink="http://www.w3.org/1999/xlink" width="177" height="182" viewBox="0 0 177 182"><defs><clipPath id="b"><rect width="177" height="182"/></clipPath></defs><g id="a" clip-path="url(#b)"><rect width="177" height="182" fill="rgba(255,255,255,0)"/><g transform="translate(-146.714 7.092)"><circle cx="78.02" cy="78.02" r="78.02" transform="translate(157.694 6.867)" fill="#999"/><path d="M156.951,8.037a72.422,72.422,0,1,0,24.7,140.433,72.294,72.294,0,0,1,6.592-133.224A72.422,72.422,0,0,0,156.951,8.037ZM137.589,30.675c3.471.053,6.016,1.23,7.093,3.281,2.287,4.352-2.523,11.383-10.744,15.7s-16.743,4.295-19.029-.059,2.523-11.382,10.744-15.7a25.94,25.94,0,0,1,11.937-3.222ZM118.9,91.211a12.263,12.263,0,0,1,12.24,11.541,6.952,6.952,0,1,1-6.02,11.275,12.257,12.257,0,1,1-6.218-22.816Z" transform="translate(78.762 4.429)" fill="#ccc"/></g></g></svg>