<svg xmlns="http://www.w3.org/2000/svg" xmlns:xlink="http://www.w3.org/1999/xlink" width="177" height="182" viewBox="0 0 177 182"><defs><clipPath id="b"><rect width="177" height="182"/></clipPath></defs><g id="a" clip-path="url(#b)"><rect width="177" height="182" fill="rgba(255,255,255,0)"/><g transform="translate(-157.466 -77.854)"><circle cx="86.69" cy="86.69" r="86.69" transform="translate(159.91 82.806)" fill="#999"/><path d="M241.566,83.993a80.469,80.469,0,1,0,80.469,80.469,80.469,80.469,0,0,0-80.469-80.469Zm-21.515,25.154c3.856.059,6.683,1.366,7.88,3.644,2.542,4.837-2.8,12.649-11.939,17.45s-18.6,4.772-21.144-.066,2.8-12.648,11.939-17.449a28.822,28.822,0,0,1,13.263-3.579Zm50.034,6.516c3.606,0,6.53,2.088,6.532,4.664a3.422,3.422,0,0,1-.206,1.14c5.6.727,9.528,3.334,9.537,6.326,0,3.607-5.64,6.532-12.6,6.532s-12.6-2.925-12.6-6.532c.005-1.809,1.457-3.536,4.009-4.769a3.842,3.842,0,0,1-1.21-2.7c0-2.577,2.927-4.665,6.535-4.664Zm-37.176,41.474c4.3,0,7.78,1.858,7.777,4.15s-3.481,4.147-7.776,4.147-7.775-1.856-7.776-4.147,3.478-4.15,7.775-4.15Zm39.271,18.927a24.333,24.333,0,0,1,10.712,2.823c7.656,3.882,12.2,10.315,10.143,14.369s-9.928,4.193-17.585.311-12.2-10.314-10.143-14.368c1.007-1.986,3.487-3.116,6.876-3.135Zm-72.889.344a13.626,13.626,0,0,1,13.6,12.826A7.724,7.724,0,1,1,206.2,201.76a13.619,13.619,0,1,1-6.908-25.351Z" transform="translate(5.034 5.034)" fill="#ccc"/></g></g></svg>