<svg xmlns="http://www.w3.org/2000/svg" width="2231.554" height="2231.554" viewBox="0 0 2231.554 2231.554"><g transform="translate(-159.91 -82.806)"><circle cx="1115.777" cy="1115.777" r="1115.777" transform="translate(159.91 82.806)" fill="#fff"/><path d="M1196.8,83.993C624.8,83.994,161.1,547.7,161.1,1119.7S624.8,2155.406,1196.8,2155.406c507.94,0,930.479-365.649,1018.878-848.762a1039.861,1039.861,0,0,0,16.827-186.944c0-572-463.7-1035.7-1035.706-1035.7ZM973.65,421.509c41.1.628-156.083-21.4-210.363,0-10.934,4.31-56.494-53.716-53.844-48.673,32.717,62.255-26.294,69.008-143.875,130.8S628.2,740.655,595.5,678.393C562.8,616.155,631.6,515.6,749.175,453.814c57.545-30.241,172.894-33.1,224.472-32.305Zm647.291,421.447c46.415,0,26.973-324.477,26.994-291.319-.032,4.95-99.674,138.162-101.4,142.956,72.055,9.36-212.068-9.34-211.951,29.176,0,46.428,360.855,8.035,271.3,8.039s-162.162-37.644-162.162-84.079c.065-23.284-121.872,62.739-89.021,46.864-10.1-10.136,100.646,49.656,100.612,37.215.02-33.167,119.188,111.137,165.621,111.148ZM957.955,1178.534c55.312,0,75.895-16.416,75.861,13.08,0,29.471,106.859-59.408,51.582-59.4-55.262,0-100.071-23.894-100.085-53.372-.034-29.49-82.654,99.705-27.359,99.7Zm615.17,379.192c41.987-.236-173.859,11.382-127.433,34.922,98.54,49.962,186.632-107.271,160.2-55.092-26.455,52.176,125.578,6.722,27.026-43.24-98.535-49.96-108.649,142.025-82.214,89.846,12.958-25.558-21.162-26.193,22.462-26.439ZM652.68,1685.974c92.833.036,91.044,5.4,96.5,98.072,51.4,4.427-39.756-198.641-39.732-147.05,0,54.923,164.625,0,109.7,0a99.432,99.432,0,0,1-77.554-37.246,175.4,175.4,0,0,1-88.914,24.459c-96.872,0,88.917,72.4,88.914-24.459s-185.78,86.219-88.914,86.225Z" transform="translate(78.884 78.888)" fill="#858585"/></g></svg>