<svg xmlns="http://www.w3.org/2000/svg" xmlns:xlink="http://www.w3.org/1999/xlink" width="453" height="345" viewBox="0 0 453 345"><defs><clipPath id="b"><rect width="453" height="345"/></clipPath></defs><g id="a" clip-path="url(#b)"><rect width="453" height="345" fill="rgba(255,255,255,0)"/><g transform="translate(-50.541 -101.419)"><path d="M103.522,425.1C86.144,425.1,72,411.232,72,394.192v-251.7C72,125.454,81.641,116,99.019,116h355.75c17.378,0,31.522,13.87,31.522,30.91V394.192c0,17.04-14.144,30.91-31.522,30.91Z" transform="translate(0 0)" fill="#ccc"/><circle cx="9.336" cy="9.336" r="9.336" transform="translate(90.452 134.671)" fill="#cc584c"/><circle cx="9.336" cy="9.336" r="9.336" transform="translate(118.459 134.671)" fill="#ffd464"/><circle cx="9.336" cy="9.336" r="9.336" transform="translate(143.72 134.671)" fill="#198058"/><g transform="translate(90.671 134.671)"><path d="M443.88,146a4.682,4.682,0,0,1-4.668,4.668H168.48A4.682,4.682,0,0,1,163.812,146v-9.336A4.682,4.682,0,0,1,168.48,132H439.212a4.682,4.682,0,0,1,4.668,4.668Z" transform="translate(-90.489 -132)" fill="#f5f5f5"/><path d="M464.949,389.735a8.858,8.858,0,0,1-8.975,8.682h-359A8.858,8.858,0,0,1,88,389.735V172.682A8.858,8.858,0,0,1,96.975,164h359a8.858,8.858,0,0,1,8.975,8.682Z" transform="translate(-88 -126.658)" fill="#f5f5f5"/></g><g transform="translate(109.342 173.041)"><path d="M169.349,385.383a9.363,9.363,0,0,1-9.336,9.336H113.336A9.363,9.363,0,0,1,104,385.383V189.336A9.363,9.363,0,0,1,113.336,180h46.678a9.363,9.363,0,0,1,9.336,9.336Z" transform="translate(-104 -180)" fill="#858585"/><path d="M437.4,180a9.363,9.363,0,0,1,9.336,9.336v46.678a9.357,9.357,0,0,1-9.336,9.336H185.336A9.357,9.357,0,0,1,176,236.013V189.336A9.363,9.363,0,0,1,185.336,180Z" transform="translate(-107.125 -180)" fill="#fbb040"/></g><g transform="translate(178.321 257.629)"><rect width="270.608" height="9.994" transform="translate(0 0)" fill="#b3b3b3"/><rect width="270.608" height="9.225" transform="translate(0 14.607)" fill="#b3b3b3"/><rect width="270.608" height="9.225" transform="translate(0 28.445)" fill="#b3b3b3"/><rect width="60.733" height="60.733" transform="translate(0 42.282)" fill="#b3b3b3"/></g><rect width="60.733" height="60.733" transform="translate(255.561 299.035)" fill="#0dcca5"/><g transform="translate(318.237 299.035)"><rect width="60.733" height="60.733" transform="translate(0 0)" fill="#b3b3b3"/><rect width="60.733" height="60.733" transform="translate(69.958 0)" fill="#b3b3b3"/></g></g></g></svg>