<svg xmlns="http://www.w3.org/2000/svg" width="139.025" height="109.214" viewBox="0 0 139.025 109.214"><g transform="translate(0 0)"><path d="M56.027,106.31a179.275,179.275,0,0,0-5.64-25.133c-1.118-3.744-2.376-9.229-5.256-12.221a23.782,23.782,0,0,1,5.656-2.368,2.5,2.5,0,0,0,1.721-3.03C49.625,49.951,46.9,36.313,44.043,22.7a2.551,2.551,0,0,0-2.459-1.872c-13.35-.072-26.809.846-39.649,4.711a2.741,2.741,0,0,0-1.874,3.3c2.91,15.355,4.845,30.9,10.473,45.575A2.746,2.746,0,0,0,13.8,76.27c3.413-.582,6.771-.807,10.133-1.4a.88.88,0,0,0-.372.992c2.654,9.616,9.447,58.01,25.931,53.93C59.44,127.334,57.135,113.81,56.027,106.31Zm-7.32-12.263c-2.219.769-4.331,1.895-6.512,2.765a39.439,39.439,0,0,1-7.775,2.2c-.285-1.051-.567-2.092-.845-3.039a15.79,15.79,0,0,0,5.7-.676c2.721-.742,6.6-2.467,8.473-5.055Q48.229,92.145,48.706,94.047ZM46.83,86.605c-.1.035-.2.011-.295.074-1.341.858-2.242,2.167-3.513,3.137a19.188,19.188,0,0,1-4.591,2.429,24.623,24.623,0,0,1-5.457,1.524c-.631-2.334-1.236-4.85-1.958-7.408,5.058,2.313,11.586,2.731,15.435-1.25C46.59,85.6,46.7,86.109,46.83,86.605ZM28.8,80.1a1.556,1.556,0,0,0,1.261-1.639,17.9,17.9,0,0,0-.523-3.676,10.017,10.017,0,0,0-.508-1.762,5.726,5.726,0,0,0-.329-.786c-.057-.089-.167-.243-.247-.354a1.872,1.872,0,0,0-1.919-.557,1.542,1.542,0,0,0-1.09-.367c-1.7.084-10.152,1.054-10.93-1.052a116.869,116.869,0,0,1-3.663-13.01C8.7,48.047,7.393,39,5.721,30.054c10.683-2.949,21.651-3.728,32.72-4.068,2.712-.083,7.3,27.612,8.873,36.515a22.406,22.406,0,0,0-6.7,3.606,2.384,2.384,0,0,0,0,3.386l.238.2a2.512,2.512,0,0,0,.778.419,1.645,1.645,0,0,0,.054.293c1.316,3.432,2.46,6.907,3.52,10.4-2.462,1.753-4.318,3.4-7.537,3.632-2.809.2-5.468-.85-7.956-2.034C29.416,81.63,29.145,80.831,28.8,80.1Zm6.168,20.911a38.5,38.5,0,0,0,14.418-4c.092.523.2,1.179.321,1.944a5.38,5.38,0,0,0-1.754.64,45.237,45.237,0,0,1-6.683,2.709c-1.474.5-3.683.864-5.539,1.544C35.461,102.871,35.214,101.942,34.963,101.008Zm1.538,5.564c.392-.046.752-.091.96-.134,2.048-.414,4.061-.962,6.066-1.545,1.039-.3,4.693-1.151,6.665-2.527.074.563.147,1.155.22,1.757-2.51.749-4.929,2.192-7.326,3.16-1.879.76-3.8,1.426-5.7,2.11Q36.919,107.986,36.5,106.572Zm3.6,9.615c-.659-1.352-1.276-2.749-1.819-4.21,2.282-.727,4.568-1.437,6.824-2.245a41.148,41.148,0,0,0,5.659-2.263c.162,1.7.292,3.458.369,5.172-2.061.791-3.976,1.883-6.09,2.583A23.417,23.417,0,0,1,40.1,116.187Zm5.645,7.679a11.79,11.79,0,0,0,4.7-1.346C49.681,124.954,48.249,125.875,45.749,123.866Zm5.376-5.555a16.364,16.364,0,0,1-3.248,2.592,7.454,7.454,0,0,1-4.29.772,23.767,23.767,0,0,1-2.369-3.358,22.077,22.077,0,0,0,9.988-2.636C51.206,116.6,51.176,117.475,51.125,118.311Z" transform="translate(0 -20.825)" fill="#fff"/><path d="M43.432,61.448c-5.928.923-11.768,2.322-17.757,2.727-2.2-8.328-5.164-16.532-8.031-24.639-.423-1.2-2.538-1.1-2.361.32,1.147,9.245,4.734,18.082,6.736,27.159a2.137,2.137,0,0,0,2.064,1.571c6.96-.137,13.685-1.773,20.535-2.84C47.451,65.305,46.244,61.011,43.432,61.448Z" transform="translate(-4.341 -25.907)" fill="#fff"/><path d="M150.849,58.017a32.636,32.636,0,0,0-8.51,2.664.927.927,0,0,0-1.434.658c-4.767,2.309-9.3,5.252-14.1,7.376-1.54.681-.437,3.213,1.138,2.7.973-.316,1.92-.7,2.873-1.07,1.185,2.044,2.582,3.981,3.92,5.92.5.724,1,1.458,1.517,2.181-.8.239-1.593.5-2.4.723a1.242,1.242,0,0,0-.629.422,31.7,31.7,0,0,0-3.021-4.9,2.141,2.141,0,0,0-1.621-.809c-7.9-11.271-42.039,3.983-49.188,9.669a1.8,1.8,0,0,0-.473,2.5c-2.666,28.5,65.938,24.129,55.3-4.222,5.361,2.1,12.373-.887,18.435-3.741a1.583,1.583,0,0,0,1.956-.926c.3-.142.575-.267.868-.405a9.944,9.944,0,0,0,.563.834,1.361,1.361,0,0,0,2.309-.956,7.677,7.677,0,0,0-.219-1.074c.457-.2.932-.411,1.358-.576a2.37,2.37,0,0,0,1.636-2.15C162.117,65.275,160.356,56.579,150.849,58.017ZM104.035,77.078a49.3,49.3,0,0,1,14.022-2.439c4.733-.067,10.3,3.988,6.124,8.777-4.493,5.147-15.817,4-21.833,3.769-5.362-.21-11.778-.433-17.279-1.968C90.77,81.467,97.708,79.061,104.035,77.078Zm23.462,17.2c-3.927,4.778-11.407,5.931-17.166,6.273-9.111.538-26.756-2.276-28.927-13.255A2.27,2.27,0,0,0,82,87.145c10.719,4.937,42.113,10.1,47.438-2.744C130.2,87.77,130.094,91.117,127.5,94.277ZM139.414,77.5c-.63-.92-1.4-1.766-2.084-2.639-1.418-1.8-2.806-3.622-4.231-5.415,1.166-.5,2.318-1.028,3.473-1.55a36.864,36.864,0,0,0,1.906,3.986c.467.936.891,1.9,1.33,2.845a5.564,5.564,0,0,0,.53,1.016,3.24,3.24,0,0,0,.369.447.823.823,0,0,1,.054.064c.009.014,0,.026.009.04a1.84,1.84,0,0,0,.268.348,1.136,1.136,0,0,0,.372.178C140.739,77.033,140.085,77.282,139.414,77.5Zm3.671-1.255c.5-1.142-.94-3.167-1.4-3.865-1.144-1.742-2.129-3.558-3.149-5.361,1.064-.482,2.147-.913,3.218-1.376.883,3.414,2.311,7.915,4.059,9.611C144.9,75.567,144,75.929,143.085,76.24Zm5.4-1.963c-.017-.034-.012-.067-.034-.1-.7-1.077-1.729-3.585-2.443-5.1q-1.031-2.181-1.958-4.426c.313-.125.614-.276.928-.4.456-.175.936-.353,1.411-.53a70.943,70.943,0,0,1,2.788,6.688c.375,1.046.693,2.145,1.044,3.231C149.648,73.853,149.066,74.069,148.489,74.277Zm3.417-5.011a68.1,68.1,0,0,0-3.205-6.3c.513-.151,1.031-.278,1.551-.387,0,.042-.029.066-.023.109a33.249,33.249,0,0,0,2.341,7.7c.272.656.528,1.335.79,2.018C152.879,71.34,152.36,70.292,151.907,69.266Zm3.839.908a50.891,50.891,0,0,1-3.31-7.854,8.5,8.5,0,0,1,1.746.112c3.444.632,3.1,5.594,2.692,8.8-.161.062-.321.115-.482.175C156.175,71,155.954,70.588,155.745,70.174Z" transform="translate(-22.34 -31.35)" fill="#fff"/></g></svg>