<svg xmlns="http://www.w3.org/2000/svg" viewBox="0 0 1001.32 370.14">
    <title>wordpressdotcom-logo-vertical-black</title>
    <g id="Layer_2" data-name="Layer 2">
        <g id="WPCOM_Vert">
            <path d="M500.66,0C408.76,0,334,74.77,334,166.66s74.77,166.68,166.67,166.68,166.67-74.77,166.67-166.68S592.56,0,500.66,0ZM350.82,166.66a149.32,149.32,0,0,1,13-61l71.48,195.84A149.84,149.84,0,0,1,350.82,166.66ZM500.66,316.53a150,150,0,0,1-42.33-6.11l45-130.65L549.35,306a14.32,14.32,0,0,0,1.07,2.06A149.59,149.59,0,0,1,500.66,316.53ZM521.31,96.41c9-.48,17.15-1.43,17.15-1.43,8.07-1,7.12-12.82-1-12.35,0,0-24.27,1.91-39.94,1.91-14.73,0-39.47-1.91-39.47-1.91-8.08-.47-9,11.87-1,12.35,0,0,7.65,1,15.72,1.43l23.34,64-32.8,98.35L408.85,96.41C417.88,95.93,426,95,426,95c8.07-1,7.12-12.82-1-12.35,0,0-24.27,1.91-39.93,1.91-2.81,0-6.13-.07-9.65-.18a149.81,149.81,0,0,1,226.39-28.2c-.64,0-1.28-.12-1.94-.12-14.72,0-25.16,12.82-25.16,26.59,0,12.35,7.12,22.8,14.72,35.15,5.69,10,12.35,22.8,12.35,41.32q0,19.25-11.4,48.45l-14.95,49.94ZM576,296.18l45.76-132.33c8.56-21.37,11.4-38.47,11.4-53.67a114.17,114.17,0,0,0-1-15.41A149.89,149.89,0,0,1,576,296.18Z" fill="#fff"/>
        </g>
    </g>
</svg>