<svg xmlns="http://www.w3.org/2000/svg" xmlns:xlink="http://www.w3.org/1999/xlink" width="177" height="182" viewBox="0 0 177 182"><defs><clipPath id="b"><rect width="177" height="182"/></clipPath></defs><g id="a" clip-path="url(#b)"><rect width="177" height="182" fill="rgba(255,255,255,0)"/><g transform="translate(-71.476 -114.75)"><circle cx="77.556" cy="77.556" r="77.556" transform="translate(82.92 129.065)" fill="#999"/><path d="M98.586,34.736A71.994,71.994,0,1,0,107.2,178.12a71.99,71.99,0,0,1-46.656-38.739q.519,1.194,1.08,2.369-.429.038-.86.045a12.179,12.179,0,0,1-6.411-22.541q.216,1.361.483,2.713a69.741,69.741,0,0,1,5.283-43.278,5.771,5.771,0,0,1-3.328-2.634C54.516,71.726,59.3,64.735,67.474,60.441a29.379,29.379,0,0,1,7.156-2.654A71.99,71.99,0,0,1,116.905,37.2a71.991,71.991,0,0,0-18.32-2.461ZM55.969,126.849q.3,1.209.649,2.407-.345-1.2-.649-2.407Zm1.988,6.347q.556,1.569,1.185,3.111-.628-1.541-1.185-3.111Z" transform="translate(61.891 99.894)" fill="#ccc"/></g></g></svg>