<svg xmlns="http://www.w3.org/2000/svg" xmlns:xlink="http://www.w3.org/1999/xlink" width="177" height="182" viewBox="0 0 177 182"><defs><clipPath id="b"><rect width="177" height="182"/></clipPath></defs><g id="a" clip-path="url(#b)"><rect width="177" height="182" fill="rgba(255,255,255,0)"/><g transform="translate(-606.213 -108.095)"><path d="M209.131,31.691c-17.959,0-35.681,8.851-48.061,23.608s-19.419,35.195-19.419,55.718,7.039,40.959,19.419,55.715,30.1,23.608,48.061,23.608a55.513,55.513,0,0,0,6.107-.353c1.909.144,3.82.242,5.735.242a79.218,79.218,0,0,0,79.214-79.211A79.214,79.214,0,0,0,220.973,31.8c-1.915,0-3.827.1-5.735.242a55.522,55.522,0,0,0-6.107-.355Z" transform="translate(474.294 88.978)" fill="#999"/><path d="M204.6,32.956c-34.069,0-61.686,32.92-61.685,73.528s27.616,73.523,61.683,73.524c23.411-.036,44.786-15.867,55.185-40.868-3.306.81-7.99-.05-12.381-2.272-7-3.547-11.145-9.425-9.268-13.129.92-1.815,3.187-2.848,6.285-2.865a22.236,22.236,0,0,1,9.784,2.58,20.982,20.982,0,0,1,8.519,7.382,86.327,86.327,0,0,0,3.561-24.354c0-40.607-27.616-73.525-61.683-73.526Zm-7.818,26.775c3.524.053,6.107,1.247,7.2,3.329,2.322,4.419-2.562,11.557-10.909,15.943s-17,4.361-19.321-.06S176.316,67.388,184.662,63a26.335,26.335,0,0,1,12.119-3.27ZM242.5,65.682c3.3,0,5.967,1.909,5.968,4.263a3.129,3.129,0,0,1-.187,1.041c5.115.665,8.705,3.046,8.713,5.78,0,3.3-5.155,5.971-11.513,5.97s-11.508-2.674-11.507-5.97c0-1.653,1.329-3.232,3.66-4.359a3.511,3.511,0,0,1-1.1-2.461c0-2.356,2.674-4.265,5.971-4.264Zm-33.967,37.9c3.927,0,7.109,1.7,7.107,3.791s-3.182,3.79-7.107,3.79-7.1-1.7-7.1-3.79,3.18-3.791,7.1-3.791Zm-30.719,17.609a12.45,12.45,0,0,1,12.426,11.72,7.056,7.056,0,1,1-6.113,11.444,12.444,12.444,0,1,1-6.31-23.164Zm84.417,11.258q-1.081,3.406-2.44,6.671,1.358-3.262,2.44-6.671Z" transform="translate(478.825 93.512)" fill="#ccc"/></g></g></svg>