<svg xmlns="http://www.w3.org/2000/svg" width="767.304" height="494.736" viewBox="0 0 767.304 494.736"><g transform="translate(-511.82 -4939.932)"><g transform="matrix(0.017, -1, 1, 0.017, 326.988, 6231.779)"><g transform="translate(840.148 544.839)"><path d="M111.15,0C244.239,0,352.128,41.011,352.128,91.6s-107.89,91.6-240.979,91.6S81.1,136.458,81.1,85.869-21.939,0,111.15,0Z" transform="translate(-43.06 0)" fill="#858585" opacity="0.74"/><path d="M64.2,0c35.459,0,93.144,30.53,93.144,64.149S99.663,134.477,64.2,134.477,0,104.373,0,67.239,28.745,0,64.2,0Z" transform="translate(138.658 25.071)" fill="#0dcca5" opacity="0.7"/></g></g><g transform="translate(448.524 6135.592) rotate(-79)"><g transform="translate(840.148 544.839)"><path d="M81.684,0c75.494,0,136.694,23.263,136.694,51.96s-61.2,51.96-136.694,51.96S64.639,77.406,64.639,48.709,6.19,0,81.684,0Z" transform="translate(-43.06 0)" fill="#858585" opacity="0.74"/><path d="M36.42,0C56.533,0,89.255,17.318,89.255,36.389S56.533,76.282,36.42,76.282,0,59.205,0,38.141,16.306,0,36.42,0Z" transform="translate(78.653 14.221)" fill="#0b334b" opacity="0.7"/></g></g><path d="M808.4,222.773s58.249-12.207,64.834,2.617-41.516,49.87-41.516,49.87,29.608,51.627,17.548,62.474-60.26-24.073-60.26-24.073-39.948,44.113-53.992,35.993,4.274-64.749,4.274-64.749-54.3-24.365-50.914-40.228,62.9-15.943,62.9-15.943,6.393-59.171,22.526-60.854S808.4,222.773,808.4,222.773Z" transform="translate(-4.604 5252.391) rotate(-30)" fill="#fbb040"/><path d="M723.223,183.839s16.963-3.555,18.88.762-12.09,14.523-12.09,14.523,8.622,15.034,5.11,18.193-17.548-7.01-17.548-7.01-11.633,12.846-15.723,10.482,1.245-18.856,1.245-18.856-15.812-7.1-14.827-11.715,18.317-4.643,18.317-4.643,1.862-17.231,6.56-17.721S723.223,183.839,723.223,183.839Z" transform="matrix(-0.799, -0.602, 0.602, -0.799, 1520.806, 5563.211)" fill="#fbb040"/><path d="M710.278,177.923s10.688-2.24,11.9.48-7.618,9.151-7.618,9.151,5.433,9.473,3.22,11.464S706.72,194.6,706.72,194.6s-7.33,8.095-9.907,6.6.784-11.881.784-11.881-9.964-4.471-9.343-7.382,11.542-2.926,11.542-2.926,1.173-10.858,4.133-11.166S710.278,177.923,710.278,177.923Z" transform="matrix(-0.999, -0.035, 0.035, -0.999, 1755.386, 5330.49)" fill="#fbb040"/><path d="M326.448,215.361s13.386-12,17.35-9.121-3.314,19.319-3.314,19.319,15.55,9.022,14.036,13.682-19.4,2.819-19.4,2.819-3.774,17.578-8.675,17.578-8.675-17.577-8.675-17.577-17.883,1.842-19.4-2.819,14.036-13.682,14.036-13.682-7.278-16.439-3.314-19.319S326.448,215.361,326.448,215.361Z" transform="matrix(-0.999, -0.035, 0.035, -0.999, 1507.127, 5464.433)" fill="#fbb040"/><path d="M732.349,188.01s21.386-4.482,23.8.961-15.242,18.31-15.242,18.31,10.871,18.955,6.443,22.937-22.124-8.838-22.124-8.838-14.667,16.2-19.823,13.215,1.569-23.772,1.569-23.772-19.936-8.945-18.693-14.77,23.094-5.854,23.094-5.854,2.347-21.724,8.27-22.342S732.349,188.01,732.349,188.01Z" transform="matrix(-0.999, -0.035, 0.035, -0.999, 1940.6, 5271.867)" fill="#fbb040"/><path d="M732.349,188.01s21.386-4.482,23.8.961-15.242,18.31-15.242,18.31,10.871,18.955,6.443,22.937-22.124-8.838-22.124-8.838-14.667,16.2-19.823,13.215,1.569-23.772,1.569-23.772-19.936-8.945-18.693-14.77,23.094-5.854,23.094-5.854,2.347-21.724,8.27-22.342S732.349,188.01,732.349,188.01Z" transform="translate(-176.406 4984.902)" fill="#fbb040"/><g transform="translate(313.926 6369.736) rotate(-102)"><g transform="translate(840.148 544.839)"><path d="M92.167,0c95.985,0,173.8,29.578,173.8,66.063s-77.811,66.063-173.8,66.063S70.5,98.415,70.5,61.929-3.818,0,92.167,0Z" transform="translate(-43.06 0)" fill="#858585" opacity="0.74"/><path d="M46.3,0c25.573,0,67.176,22.019,67.176,46.265S71.878,96.986,46.3,96.986,0,75.275,0,48.493,20.731,0,46.3,0Z" transform="translate(100.001 18.081)" fill="#fbb040" opacity="0.7"/></g></g></g></svg>